<svg t="1583142167107" class="icon" viewBox="0 0 1024 1024" version="1.1" xmlns="http://www.w3.org/2000/svg" p-id="7379" width="128" height="128"><path d="M128.232727 867.84a19.549091 19.549091 0 0 1 28.392728 0c7.912727 7.447273 7.912727 20.48 0 28.858182l-50.269091 50.036363c-7.912727 8.145455-21.178182 8.145455-28.858182 0a20.503273 20.503273 0 0 1 0-28.858181l50.734545-50.036364zM253.44 867.84c7.68-7.912727 20.48-7.912727 28.392727 0 8.145455 7.912727 8.145455 20.712727 0 28.625455l-50.501818 50.501818c-7.912727 7.68-20.712727 7.68-28.392727 0a19.828364 19.828364 0 0 1 0-28.625455l50.501818-50.501818zM126.370909 741.003636c7.68-7.912727 20.48-7.912727 28.392727 0 8.145455 7.912727 8.145455 20.712727 0 28.625455l-50.501818 50.501818c-7.912727 7.68-20.712727 7.68-28.392727 0a19.828364 19.828364 0 0 1 0-28.625454l50.501818-50.501819z" p-id="7380" fill="#fdd000"></path><path d="M190.836364 803.141818c7.68-7.68 20.48-7.68 28.392727 0 8.145455 8.145455 8.145455 20.945455 0 28.858182L104.727273 946.734545c-7.912727 7.912727-20.712727 7.912727-28.392728 0a19.712 19.712 0 0 1 0-28.858181l114.501819-114.734546zM787.549091 664.901818c72.843636-72.610909 122.181818-161.512727 147.083636-254.603636 26.065455-96.349091 26.065455-198.050909 0.232728-294.632727v-0.698182c-3.025455-11.636364-12.101818-20.945455-24.203637-23.970909a562.618182 562.618182 0 0 0-295.330909 0 570.018909 570.018909 0 0 0-254.836364 146.850909h0.465455l-0.465455 0.930909-6.283636 6.283636a231.889455 231.889455 0 0 0-104.96-2.56c-40.727273 8.843636-79.825455 28.858182-111.010909 60.974546a221.090909 221.090909 0 0 0-62.603636 122.414545c-7.214545 45.381818-0.465455 92.858182 20.712727 134.981818 1.163636 3.025455 3.258182 5.818182 5.818182 8.843637 12.8 13.498182 34.210909 14.196364 47.941818 1.629091 13.730909-12.8 29.090909-22.574545 45.614545-29.323637l7.214546-2.792727c-1.629091 9.076364-2.56 18.152727-4.189091 27.461818-3.258182 26.298182-4.887273 51.898182-4.887273 78.196364-0.930909 9.774545 2.327273 19.316364 9.309091 26.763636l151.272727 151.04c6.283636 5.818182 14.429091 9.309091 23.505455 9.309091 26.996364 0.232727 53.76-0.930909 80.756364-4.654545 9.076364-1.163636 18.850909-2.56 27.927272-4.421819l-2.792727 7.447273c-6.749091 16.290909-16.756364 32.116364-29.323636 45.381818-2.327273 2.327273-4.421818 5.352727-5.818182 7.912728-8.145455 16.523636-1.396364 37.236364 14.894545 45.381818 42.821818 21.410909 90.530909 28.16 136.378182 21.178182a226.210909 226.210909 0 0 0 120.552727-60.741819l1.861819-1.861818a221.649455 221.649455 0 0 0 60.50909-110.778182c7.447273-34.676364 6.749091-70.749091-2.56-104.96l4.887273-4.421818 2.327273-2.56z m-131.490909-160.349091c-69.818182 0-126.603636-56.32-126.603637-126.138182 0-69.12 56.785455-125.905455 126.603637-125.905454s126.138182 56.32 126.138182 125.905454-56.32 126.138182-126.138182 126.138182z" p-id="7381" fill="#fdd000"></path><path d="M656.058182 293.003636c-47.476364 0-85.643636 37.934545-85.643637 85.643637a85.178182 85.178182 0 0 0 85.643637 85.178182c47.243636 0 85.643636-37.934545 85.643636-85.178182a85.410909 85.410909 0 0 0-85.643636-85.643637z" p-id="7382" fill="#fdd000"></path></svg>