<svg t="1583148412319" class="icon" viewBox="0 0 1024 1024" version="1.1" xmlns="http://www.w3.org/2000/svg" p-id="8882" width="128" height="128"><path d="M128 250.56v202.88a96 96 0 0 0 0 181.12v202.88a96 96 0 1 0 64 0V634.56a96 96 0 0 0 0-181.12V250.56a96 96 0 1 0-64 0zM384 128h512a64 64 0 0 1 64 64v64a64 64 0 0 1-64 64H320V192a64 64 0 0 1 64-64z m0 320h512a64 64 0 0 1 64 64v64a64 64 0 0 1-64 64H320V512a64 64 0 0 1 64-64z m0 320h512a64 64 0 0 1 64 64v64a64 64 0 0 1-64 64H320V832a64 64 0 0 1 64-64z" p-id="8883" fill="#f08200"></path></svg>