<svg t="1583139576628" class="icon" viewBox="0 0 1024 1024" version="1.1" xmlns="http://www.w3.org/2000/svg" p-id="2284" width="128" height="128"><path d="M772.48 577.92c43.52 0 84.224 12.736 118.528 34.432 2.88-19.904 4.416-72.32 4.416-93.696v-324.48a63.552 63.552 0 0 0-65.152-63.552c-10.816 0-22.144 0.768-34.176 1.28C614.592 135.936 532.48 32 482.112 32c-50.24 0-157.504 115.2-323.52 99.584-9.216 0-17.408-0.768-24.384-0.896a63.616 63.616 0 0 0-65.216 63.552V537.6c0 337.408 376.576 468.992 392.64 474.496l12.288 4.16s31.168-10.496 76.416-32.704v-188.16A222.08 222.08 0 0 1 772.48 577.92zM535.04 501.504v72.192a31.744 31.744 0 0 1-31.68 31.744h-42.752a31.744 31.744 0 0 1-31.744-31.744V501.504H356.288a31.744 31.744 0 0 1-31.68-31.68V427.52c0-17.472 14.208-31.744 31.68-31.744h72.576V323.904c0-17.472 14.208-31.744 31.744-31.744h42.752c17.472 0 31.744 14.272 31.744 31.744v71.872h72.512c17.536 0 31.744 14.272 31.744 31.744v42.24a31.744 31.744 0 0 1-31.744 31.744H535.104z m386.112 441.856V800c-1.92-89.6-59.2-161.28-148.736-161.28-89.6 0-146.816 71.68-148.736 161.28v143.36a36.352 36.352 0 0 0-33.728 36.16c0 20.288 16.448 36.736 36.736 36.736h291.712a36.736 36.736 0 0 0 36.672-36.736 36.672 36.672 0 0 0-33.92-36.16z" p-id="2285" fill="#f6f6f6"></path></svg>