<svg t="1597853077030" class="icon" viewBox="0 0 1024 1024" version="1.1" xmlns="http://www.w3.org/2000/svg" p-id="2575" width="128" height="128"><path d="M512.2322 0a510.839002 510.839002 0 1 0 510.839002 510.839002 510.839002 510.839002 0 0 0-510.839002-510.839002z m0 955.733333a443.965533 443.965533 0 1 1 443.501133-443.501133 443.965533 443.965533 0 0 1-443.501133 443.501133z" fill="#fdd000" p-id="2576"></path><path d="M606.040816 320.435374a125.852154 125.852154 0 0 0-92.879818 43.653515 126.780952 126.780952 0 0 0-92.879819-43.653515 113.777778 113.777778 0 0 0-117.028571 113.777778c0 78.947846 71.053061 143.49932 178.793651 241.023129l30.185941 27.399547 30.185941-27.399547c107.74059-97.52381 178.329252-162.075283 178.329251-241.023129a113.313379 113.313379 0 0 0-114.706576-113.777778z m-92.879818 291.178231c-82.663039-75.232653-139.319728-130.496145-139.319728-176.471655a46.439909 46.439909 0 0 1 46.439909-46.439909 56.656689 56.656689 0 0 1 42.260318 19.504762l52.012698 60.836281 51.548299-60.836281a58.514286 58.514286 0 0 1 39.938322-20.43356 46.439909 46.439909 0 0 1 46.43991 46.439909c0 46.439909-58.049887 102.1678-140.248526 177.400453z" fill="#fdd000" p-id="2577"></path></svg>