<?xml version="1.0" standalone="no"?><!DOCTYPE svg PUBLIC "-//W3C//DTD SVG 1.1//EN" "http://www.w3.org/Graphics/SVG/1.1/DTD/svg11.dtd"><svg class="icon" width="128px" height="128.00px" viewBox="0 0 1024 1024" version="1.1" xmlns="http://www.w3.org/2000/svg"><path d="M874.496 350.208h-43.008c10.24-14.336 16.384-28.672 16.384-47.104 0-20.48-8.192-40.96-24.576-55.296l-131.072-126.976c-30.72-30.72-81.92-30.72-112.64 0L552.96 147.456l-55.296-36.864c-36.864-24.576-83.968-18.432-106.496 14.336l-159.744 227.328H186.368c-28.672 0-53.248 24.576-53.248 53.248v458.752c0 28.672 24.576 53.248 53.248 53.248h688.128c28.672 0 53.248-24.576 53.248-53.248V403.456c-2.048-28.672-24.576-53.248-53.248-53.248zM616.448 157.696c10.24-10.24 28.672-10.24 38.912 0l131.072 126.976c4.096 4.096 8.192 12.288 8.192 18.432 0 6.144-2.048 14.336-8.192 18.432L757.76 350.208H419.84l196.608-192.512z m-184.32-4.096c6.144-8.192 22.528-10.24 34.816-2.048L514.048 184.32l-169.984 165.888h-51.2l139.264-196.608z m442.368 708.608H186.368V403.456h688.128v458.752z" fill="#3d8f00" /><path d="M608.256 671.744c10.24 0 18.432-8.192 18.432-18.432v-4.096l2.048-2.048c43.008 28.672 90.112 32.768 141.312 2.048l20.48 20.48 28.672-28.672-20.48-20.48c61.44-92.16-20.48-180.224-92.16-178.176 59.392 22.528 94.208 92.16 63.488 149.504L696.32 516.096l28.672-28.672-18.432-18.432c-10.24 10.24-24.576 12.288-36.864 8.192l-57.344 57.344 32.768 32.768 20.48-20.48 73.728 75.776c-36.864 20.48-88.064 14.336-124.928-24.576l-16.384 16.384c6.144 8.192 10.24 14.336 16.384 20.48l-2.048 2.048h-4.096c-10.24 0-18.432 8.192-18.432 18.432 0 8.192 8.192 16.384 18.432 16.384z" fill="#3d8f00" /></svg>