<?xml version="1.0" standalone="no"?><!DOCTYPE svg PUBLIC "-//W3C//DTD SVG 1.1//EN" "http://www.w3.org/Graphics/SVG/1.1/DTD/svg11.dtd"><svg class="icon" width="32px" height="32.00px" viewBox="0 0 1024 1024" version="1.1" xmlns="http://www.w3.org/2000/svg"><path fill="#3d8f00" d="M749.176471 797.635765c25.961412 0 50.115765-1.264941 72.658823-3.358118a783.962353 783.962353 0 0 0 0-145.317647 783.962353 783.962353 0 0 0-145.317647 0 783.962353 783.962353 0 0 0 0 145.317647 783.962353 783.962353 0 0 0 72.658824 3.358118zM490.962824 721.618824c0 24.229647 57.344 55.687529 155.557647 69.270588a797.078588 797.078588 0 0 1-3.041883-69.270588c0-23.085176 1.039059-46.411294 3.041883-69.270589-98.213647 13.583059-155.557647 45.040941-155.557647 69.270589zM848.579765 622.215529c74.556235 9.622588 140.257882 30.177882 170.601411 60.762353-17.016471-119.792941-111.570824-214.332235-231.348705-231.363764 30.569412 30.358588 51.124706 96.045176 60.747294 170.601411zM749.176471 827.316706c-23.085176 0-46.411294-1.039059-69.270589-3.041882 13.583059 98.213647 45.040941 155.557647 69.270589 155.557647s55.687529-57.344 69.270588-155.557647a797.349647 797.349647 0 0 1-69.270588 3.041882zM818.447059 618.962824c-13.583059-98.213647-45.040941-155.557647-69.270588-155.557648s-55.687529 57.344-69.270589 155.557648a797.349647 797.349647 0 0 1 69.270589-3.041883c23.085176 0 46.411294 1.039059 69.270588 3.041883zM787.832471 991.623529c119.792941-17.016471 214.332235-111.570824 231.348705-231.363764-30.358588 30.584471-96.045176 51.139765-170.601411 60.762353-9.622588 74.556235-30.177882 140.242824-60.747294 170.601411zM479.171765 760.259765c17.016471 119.792941 111.570824 214.332235 231.348706 231.363764-30.569412-30.358588-51.124706-96.045176-60.747295-170.601411-74.556235-9.622588-140.242824-30.177882-170.601411-60.762353zM710.535529 451.614118c-119.792941 17.016471-214.332235 111.570824-231.348705 231.363764 30.358588-30.584471 96.045176-51.139765 170.601411-60.762353 9.607529-74.556235 30.162824-140.242824 60.747294-170.601411zM1007.390118 721.618824c0-24.229647-57.344-55.687529-155.557647-69.270589 2.002824 22.859294 3.041882 46.170353 3.041882 69.270589 0 23.085176-1.039059 46.411294-3.041882 69.270588 98.213647-13.583059 155.557647-45.040941 155.557647-69.270588zM434.100706 612.156235h-0.015059zM686.366118 256.030118h-0.015059 0.015059zM567.657412 448.933647h-0.015059 0.015059zM448.933647 721.573647c0-165.827765 134.430118-300.227765 300.257882-300.227765 18.386824 0 34.710588 1.912471 52.178824 5.089883 1.234824-2.153412 0.527059-4.517647 0.527059-7.183059V87.536941c0-45.161412-28.009412-83.772235-75.008-83.772235H75.008C24.666353 3.764706 3.764706 47.977412 3.764706 87.536941v850.236235c0 53.338353 38.068706 74.917647 71.243294 74.917648h602.112c-130.951529-30.102588-228.186353-150.181647-228.186353-291.117177zM152.154353 244.705882h534.196706c8.192 0 14.832941 4.894118 14.832941 13.071059 0 7.168-5.180235 13.974588-11.941647 15.344941-0.888471 0.376471-1.867294 1.686588-2.891294 1.686589H152.154353c-1.024 0-2.002824-2.183529-2.891294-2.56-6.761412-1.385412-11.941647-6.324706-11.941647-13.477647-0.015059-8.176941 6.640941-14.064941 14.832941-14.064942z m0 195.764706h415.488c8.192 0 14.832941 3.463529 14.832941 11.640471 0 7.168-5.195294 14.682353-11.941647 16.067765-0.888471 0.376471-1.867294 2.409412-2.891294 2.409411H152.154353c-1.024 0-2.002824-3.614118-2.891294-3.990588-6.761412-1.385412-11.941647-5.601882-11.941647-12.769882-0.015059-8.192 6.640941-13.357176 14.832941-13.357177z m288.316235 346.352941h-3.19247c0 15.058824-6.776471 12.980706-13.537883 14.366118a17.468235 17.468235 0 0 1-4.487529 0.692706H152.154353c-1.024 0-2.002824 1.370353-2.891294 0.993882-6.761412-1.385412-11.941647-8.101647-11.941647-15.269647 0-8.192 6.656-15.856941 14.832941-15.856941h267.098353c8.192 0 21.217882 8.463059 21.217882 16.64v0.903529-2.469647z m-3.493647-163.328c-0.888471 0.376471-1.867294-2.319059-2.891294-2.319058H152.154353c-1.024 0-2.002824 2.695529-2.891294 2.319058-6.761412-1.385412-11.941647-8.764235-11.941647-15.932235 0-8.192 6.656-16.519529 14.832941-16.519529h281.931294c8.192 0 14.832941 8.327529 14.832941 16.519529 0.015059 7.168-5.180235 14.546824-11.941647 15.932235z" /></svg>