<?xml version="1.0" standalone="no"?><!DOCTYPE svg PUBLIC "-//W3C//DTD SVG 1.1//EN" "http://www.w3.org/Graphics/SVG/1.1/DTD/svg11.dtd"><svg class="icon" width="32px" height="32.00px" viewBox="0 0 1024 1024" version="1.1" xmlns="http://www.w3.org/2000/svg"><path fill="#3d8f00" d="M849.454545 814.545455h-674.90909A58.228364 58.228364 0 0 1 116.363636 756.363636V291.328l345.716364 268.008727a81.408 81.408 0 0 0 99.84 0L907.636364 291.328V756.363636c0 32.093091-26.088727 58.181818-58.181819 58.181819z m0-581.818182c5.725091 0 11.147636 1.093818 16.384 2.629818l-346.693818 268.8a11.589818 11.589818 0 0 1-14.289454 0L158.161455 235.357091c5.236364-1.536 10.658909-2.629818 16.384-2.629818h674.90909z m0-69.818182h-674.90909A128.162909 128.162909 0 0 0 46.545455 290.909091v465.454545C46.545455 826.926545 103.982545 884.363636 174.545455 884.363636h674.90909c70.562909 0 128-57.437091 128-128v-465.454545C977.454545 220.346182 920.017455 162.909091 849.454545 162.909091z"  /></svg>