<?xml version="1.0" standalone="no"?><!DOCTYPE svg PUBLIC "-//W3C//DTD SVG 1.1//EN" "http://www.w3.org/Graphics/SVG/1.1/DTD/svg11.dtd"><svg class="icon" width="32px" height="32.00px" viewBox="0 0 1024 1024" version="1.1" xmlns="http://www.w3.org/2000/svg"><path fill="#3d8f00" d="M344.259048 0H111.85981A111.908571 111.908571 0 0 0 0 111.664762v232.106667c0 61.537524 50.224762 111.664762 111.85981 111.664761H344.259048a111.908571 111.908571 0 0 0 111.859809-111.664761V111.664762A111.713524 111.713524 0 0 0 344.259048 0z m37.449142 340.699429c0 22.235429-18.041905 40.277333-40.374857 40.277333H115.078095a40.326095 40.326095 0 0 1-40.374857-40.277333v-225.767619c0-22.28419 18.090667-40.326095 40.374857-40.326096h226.108953c22.28419 0 40.326095 18.041905 40.326095 40.326096v225.767619h0.195047zM900.924952 0h-232.448a111.908571 111.908571 0 0 0-111.811047 111.664762v232.106667c0 61.537524 50.176 111.664762 111.811047 111.664761h232.448a111.908571 111.908571 0 0 0 111.811048-111.664761V111.664762c0-61.537524-50.224762-111.664762-111.811048-111.664762z m37.254096 343.917714c0 20.48-16.774095 37.254095-37.254096 37.254096h-232.448a37.351619 37.351619 0 0 1-37.254095-37.254096v-232.106666c0-20.431238 16.774095-37.205333 37.254095-37.205334h232.448c20.48 0 37.254095 16.774095 37.254096 37.254096v232.106666zM344.259048 557.348571H111.85981A111.908571 111.908571 0 0 0 0 668.964571v232.106667c0 61.537524 50.224762 111.664762 111.85981 111.664762H344.259048a111.908571 111.908571 0 0 0 111.859809-111.664762v-232.106667a111.713524 111.713524 0 0 0-111.859809-111.664761z m37.449142 340.699429c0 22.235429-18.041905 40.277333-40.374857 40.277333H115.078095a40.326095 40.326095 0 0 1-40.374857-40.277333v-225.767619c0-22.28419 18.090667-40.326095 40.374857-40.326095h226.108953c22.28419 0 40.326095 18.041905 40.326095 40.326095v225.767619h0.195047z m519.216762-340.699429h-232.448a111.908571 111.908571 0 0 0-111.811047 111.664762v232.106667c0 61.537524 50.176 111.664762 111.811047 111.664762h232.448a111.908571 111.908571 0 0 0 111.811048-111.664762v-232.106667c0-61.537524-50.224762-111.664762-111.811048-111.664762z m37.254096 343.771429c0 20.48-16.774095 37.205333-37.254096 37.205333h-232.448a37.351619 37.351619 0 0 1-37.254095-37.205333v-232.106667c0-20.48 16.774095-37.205333 37.254095-37.205333h232.448c20.48 0 37.254095 16.774095 37.254096 37.205333v232.106667z"  /></svg>