<?xml version="1.0" standalone="no"?><!DOCTYPE svg PUBLIC "-//W3C//DTD SVG 1.1//EN" "http://www.w3.org/Graphics/SVG/1.1/DTD/svg11.dtd"><svg t="1619493943437" class="icon" viewBox="0 0 1024 1024" version="1.1" xmlns="http://www.w3.org/2000/svg" p-id="3469" xmlns:xlink="http://www.w3.org/1999/xlink" width="200" height="200"><defs><style type="text/css"></style></defs><path d="M959.3 598.7c0-112.5-39.1-207.8-97.3-255.1 16.2-19.2 26.3-43.7 26.3-70.8 0-61-49.6-110.6-110.6-110.6s-110.6 49.6-110.6 110.6c0 27 10.1 51.4 26.2 70.6-13.9 11.3-26.7 25.6-38.3 42.3-15.8-19.8-33.8-36.3-53.7-48.6 25.6-23.5 41.9-56.9 41.9-94.3 0-70.9-57.7-128.6-128.6-128.6S386 172 386 242.9c0 37.4 16.3 70.8 41.9 94.3-19.8 12.3-37.8 28.7-53.6 48.5-11.6-16.8-24.4-31.1-38.3-42.4 16-19.2 26.1-43.6 26.1-70.5 0-61-49.6-110.6-110.6-110.6s-110.6 49.6-110.6 110.6c0 27.1 10.1 51.5 26.3 70.8-58.3 47.3-97.3 142.6-97.3 255.1 0 11.9 5.8 22.3 14.7 28.8 6.5 6.7 15.6 10.9 25.7 10.9h813.2c19.8 0 35.9-16.1 35.9-35.9 0-0.7-0.2-1.3-0.2-1.9 0-0.6 0.1-1.2 0.1-1.9zM738.8 272.8c0-21.4 17.4-38.9 38.9-38.9s38.9 17.4 38.9 38.9-17.4 38.9-38.9 38.9-38.9-17.4-38.9-38.9z m-42.1 183.7c21.3-45.7 51.6-73 81.1-73 47.5 0 99.7 73.8 108.5 183.2H721.1c-3.1-39.6-11.7-76.5-24.9-109.3 0.1-0.4 0.3-0.6 0.5-0.9z m-182.1-73.1c66.9 0 124.1 81.1 134.3 183.2H380.3c10.2-102 67.5-183.2 134.3-183.2z m0-197.3c31.3 0 56.8 25.5 56.8 56.8s-25.5 56.8-56.8 56.8-56.8-25.5-56.8-56.8 25.5-56.8 56.8-56.8z m-302 86.7c0-21.4 17.4-38.9 38.9-38.9s38.9 17.4 38.9 38.9-17.4 38.9-38.9 38.9-38.9-17.4-38.9-38.9z m38.9 110.6c29.7 0 60 27.7 81.5 74.1-13.1 32.8-21.8 69.6-24.8 109.1H143.1c8.7-109.3 61-183.2 108.4-183.2zM86.3 909.6h861V670.5h-861v239.1z m71.8-167.4h717.5v95.7H158.1v-95.7z" fill="#0e932e" p-id="3470"></path></svg>