<?xml version="1.0" standalone="no"?><!DOCTYPE svg PUBLIC "-//W3C//DTD SVG 1.1//EN" "http://www.w3.org/Graphics/SVG/1.1/DTD/svg11.dtd"><svg t="1610076621972" class="icon" viewBox="0 0 1024 1024" version="1.1" xmlns="http://www.w3.org/2000/svg" p-id="6836" xmlns:xlink="http://www.w3.org/1999/xlink" width="128" height="128"><defs><style type="text/css"></style></defs><path d="M310.9 690.9c98.7 0 178.8-80.1 178.8-178.9s-80.1-178.9-178.8-178.9S132.1 413.2 132.1 512s80 178.9 178.8 178.9zM87.3 377.8C75 377.8 65 367.7 65 355.5v-222c0-13.3 10.7-24 24-24h846c13.3 0 24 10.7 24 24v667.6c0 13.3-10.7 24-24 24H623.8c-12.3 0-22.4-10-22.4-22.4 0-12.4 10-22.4 22.4-22.4h289.5c0.5 0 1-0.4 1-1V155.2c0-0.5-0.4-1-1-1H110.7c-0.6 0-1 0.4-1 1v200.3c0 12.3-10 22.3-22.4 22.3z m550.5 157c-0.8-0.8-0.8-2.1 0-2.8l147.3-147.3c9.1-9.1 23.9-9.1 33 0 9.1 9.1 9.1 23.9 0 33L670.8 565c-0.8 0.8-2 0.8-2.8 0l-30.2-30.2zM507 784.6c-19.5 31.5-17.3 104.1-17.3 104.1s-5.4 10.2-22.4 25.6c-50.5 0.3-379.9 0-379.9 0s-11-11.8-22.4-25.5c0-96.5 69.6-186.4 69.6-186.4s8.7-15.1 22.4-16.9c9-1.1 14.9 1.8 17.9 3.8 0.4 0.3 0.9 0.7 1.3 1 38.2 28.6 84.5 45.1 134.6 45.1 49 0 94.3-15.8 131.2-42.5l143.4-107.1c4.1-4.1 9.7-6.7 16-6.7 12.3 0 22.3 10 22.3 22.3 0 4.5-1.3 8.6-3.6 12.1 0.2 0.2-93.6 139.6-113.1 171.1z" p-id="6837" fill="#3d8f00"></path></svg>