<?xml version="1.0" standalone="no"?>
<!DOCTYPE svg PUBLIC "-//W3C//DTD SVG 1.1//EN" "http://www.w3.org/Graphics/SVG/1.1/DTD/svg11.dtd">
<svg class="icon" width="32px" height="32.00px" viewBox="0 0 1024 1024" version="1.1" xmlns="http://www.w3.org/2000/svg">
<path fill="#3d8f00" d="M214.4 0h583.424a182.592 182.592 0 0 1 182.016 171.648l0.32 10.688v656.448a182.656 182.656 0 0 1-171.648 182.016l-10.688 0.32H214.336a182.656 182.656 0 0 1-182.016-171.648L32 838.784V182.336A182.656 182.656 0 0 1 203.648 0.32L214.4 0h583.488-583.488z m583.424 72.96H214.336c-57.088 0-104.192 43.968-108.992 99.968l-0.384 9.408v656.448c0 57.088 43.968 104.192 99.968 108.992l9.408 0.384h583.488c57.024 0 104.128-44.032 108.928-99.968l0.448-9.408V182.336c0-57.088-44.032-104.192-99.968-108.992l-9.408-0.384z m-36.48 291.712c18.176 0 33.152 13.248 35.968 30.528l0.512 5.888v218.816a36.416 36.416 0 0 1-72.384 5.888l-0.448-5.888V401.088c0-20.096 16.256-36.416 36.416-36.416z" />
</svg>