<?xml version="1.0" standalone="no"?><!DOCTYPE svg PUBLIC "-//W3C//DTD SVG 1.1//EN" "http://www.w3.org/Graphics/SVG/1.1/DTD/svg11.dtd"><svg class="icon" width="32px" height="32.00px" viewBox="0 0 1024 1024" version="1.1" xmlns="http://www.w3.org/2000/svg"><path fill="#3d8f00" d="M920.584164 142.198629l-810.724569 0c-36.633339 0-66.233494 25.975605-66.233494 58.738799L43.626102 684.963307c0 32.81743 29.600155 60.400648 66.233494 60.400648l810.724569 0c36.524868 0 66.180282-27.583219 66.180282-60.400648L986.764446 200.938452C986.764446 168.174234 957.110055 142.198629 920.584164 142.198629zM913.824203 634.810047c0 26.165939-25.730011 47.099714-56.583716 47.099714L173.039543 681.909761c-30.800493 0-56.419987-20.933775-56.419987-47.099714L116.619556 251.391541c0-26.004257 25.620517-47.26549 56.419987-47.26549l684.200944 0c30.853705 0 56.583716 21.261233 56.583716 47.26549L913.824203 634.810047zM43.626102 810.453393c0 39.793308 29.600155 72.502267 66.233494 72.502267l810.724569 0c36.524868 0 66.180282-32.708959 66.180282-72.502267l0-41.759079L43.626102 768.694313 43.626102 810.453393zM583.47231 835.092559c0 9.267061-7.794523 17.551748-16.899902 17.551748L460.160843 852.644307c-9.157567 0-17.170055-8.28571-17.170055-17.551748l0-21.36868c0-9.051143 8.012488-16.137539 17.170055-16.137539l106.411565 0c9.104355 0 16.899902 7.086395 16.899902 16.137539L583.47231 835.092559zM583.47231 835.092559c0 9.267061-7.794523 17.551748-16.899902 17.551748L460.160843 852.644307c-9.157567 0-17.170055-8.28571-17.170055-17.551748l0-21.36868c0-9.051143 8.012488-16.137539 17.170055-16.137539l106.411565 0c9.104355 0 16.899902 7.086395 16.899902 16.137539L583.47231 835.092559z" /></svg>