<svg t="1596703829645" class="icon" viewBox="0 0 1024 1024" version="1.1" xmlns="http://www.w3.org/2000/svg" p-id="3278" width="200" height="200"><path d="M682.666667 648.533333a170.666667 170.666667 0 1 1 0-341.333333 170.666667 170.666667 0 0 1 0 341.333333z m0-34.133333a136.533333 136.533333 0 1 0 0-273.066667 136.533333 136.533333 0 0 0 0 273.066667z" fill="#3d8f00" p-id="3279"></path><path d="M955.733333 955.733333H409.6v-41.2672C409.6 748.7488 531.8656 614.4 682.666667 614.4s273.066667 134.3488 273.066666 300.066133V955.733333z m-34.133333-34.133333v-33.006933C921.6 756.0192 814.626133 648.533333 682.666667 648.533333s-238.933333 107.485867-238.933334 240.059734V921.6h477.866667zM354.474667 785.066667C175.240533 771.413333 34.133333 624.059733 34.133333 444.245333 34.133333 255.453867 189.713067 102.4 381.6448 102.4 510.2592 102.4 622.592 171.144533 682.666667 273.339733h-40.925867a313.856 313.856 0 0 0-260.096-136.738133c-172.714667 0-312.763733 137.728-312.763733 307.643733 0 160.904533 125.576533 292.9664 285.5936 306.517334V785.066667z" fill="#3d8f00" p-id="3280"></path><path d="M341.333333 238.933333h34.133334v204.8h-34.133334z" fill="#3d8f00" p-id="3281"></path><path d="M345.9072 425.642667l29.559467 17.066666-102.4 177.3568-29.559467-17.066666z" fill="#3d8f00" p-id="3282"></path></svg>