<?xml version="1.0" standalone="no"?><!DOCTYPE svg PUBLIC "-//W3C//DTD SVG 1.1//EN" "http://www.w3.org/Graphics/SVG/1.1/DTD/svg11.dtd"><svg class="icon" width="32px" height="32.00px" viewBox="0 0 1024 1024" version="1.1" xmlns="http://www.w3.org/2000/svg"><path fill="#3d8f00" d="M316.994783 994.526609H149.77113c-50.977391 0-92.471652-43.186087-92.471652-96.300522V127.332174c0-53.069913 41.494261-96.256 92.471652-96.256h600.509218c51.021913 0 92.516174 43.186087 92.516174 96.256v224.656696c0 20.569043-16.027826 37.220174-35.795479 37.220173-19.72313 0-35.750957-16.65113-35.750956-37.220173V127.332174a21.726609 21.726609 0 0 0-20.969739-21.815652H149.726609a21.726609 21.726609 0 0 0-20.969739 21.815652v770.938435c0 11.842783 9.616696 21.860174 20.969739 21.860174h167.312695c19.72313 0 35.750957 16.65113 35.750957 37.220174 0 20.524522-16.027826 37.220174-35.750957 37.220173z"  /><path fill="#3d8f00" d="M652.02087 313.433043H298.607304c-19.144348 0-34.637913-16.339478-34.637913-36.507826 0-20.123826 15.493565-36.463304 34.637913-36.463304h353.413566c19.144348 0 34.726957 16.339478 34.726956 36.507826 0 20.123826-15.582609 36.463304-34.726956 36.463304z m-47.638261 178.621218H298.874435c-19.144348 0-34.637913-16.339478-34.637913-36.507826 0-20.123826 15.493565-36.418783 34.637913-36.418783h305.508174c19.144348 0 34.637913 16.294957 34.637913 36.463305 0 20.123826-15.493565 36.463304-34.637913 36.463304z m-99.684174 182.316522H299.987478c-19.144348 0-34.682435-16.294957-34.682435-36.463305 0-20.123826 15.538087-36.463304 34.682435-36.463304h204.710957c19.144348 0 34.682435 16.339478 34.682435 36.507826 0 20.123826-15.538087 36.418783-34.682435 36.418783z m-31.699478 320.111304l-3.428174-167.090087c-5.965913-19.812174 3.116522-40.247652 14.024347-53.158957l285.072696-336.628869c8.013913-9.438609 18.877217-15.270957 30.72-16.473044a44.254609 44.254609 0 0 1 34.726957 11.798261l117.492869 110.146783c18.877217 17.67513 20.301913 48.528696 3.205565 68.830609l-71.590956 85.348174a33.480348 33.480348 0 0 1-48.929391 3.205565 37.843478 37.843478 0 0 1-3.027479-51.467131l56.809739-67.762087-82.587826-77.467826-266.907826 315.213913 0.267131 5.253566 1.825391 88.687304 73.728-8.904348 3.517217-3.917913 0.222609-0.311652 146.298435-169.138087a33.480348 33.480348 0 0 1 48.973913-2.404174 37.843478 37.843478 0 0 1 2.31513 51.511652l-146.164869 169.004522a138.462609 138.462609 0 0 1-14.959305 15.270956c-13.668174 11.575652-25.778087 13.979826-35.261217 12.77774l-146.342956 17.719652z"  /><path fill="#3d8f00" d="M831.443478 694.672696l-100.396521-102.934261a32.189217 32.189217 0 0 1 0.712347-45.679305 32.634435 32.634435 0 0 1 45.946435 0.712348l100.396522 102.934261a32.189217 32.189217 0 0 1-0.712348 45.679304 32.50087 32.50087 0 0 1-45.946435-0.712347z"  /></svg>