<?xml version="1.0" standalone="no"?><!DOCTYPE svg PUBLIC "-//W3C//DTD SVG 1.1//EN" "http://www.w3.org/Graphics/SVG/1.1/DTD/svg11.dtd"><svg class="icon" width="32px" height="32.00px" viewBox="0 0 1024 1024" version="1.1" xmlns="http://www.w3.org/2000/svg"><path d="M511.998 734.270085C224.895749 734.270085 0.001335 636.64834 0.001335 511.998665c0-124.627675 224.894414-222.26942 511.996665-222.26942s511.996665 97.641745 511.996665 222.26942c0 124.649675-224.894414 222.27142-511.996665 222.27142z m0-401.874952c-280.745268 0-469.329776 92.862758-469.329776 179.603532 0 86.719774 188.584508 179.604532 469.329776 179.604532S981.328776 598.718439 981.328776 511.998665c0-86.739774-188.585508-179.603532-469.330776-179.603532z" fill="#3d8f00" /><path d="M679.079564 1023.99633c-108.393717 0-255.337334-173.802547-357.331068-422.696898C220.56576 354.304076 186.474849 65.19683 304.596541 8.897977a93.033757 93.033757 0 0 1 40.319895-8.895977c108.393717 0 255.337334 173.823547 357.352068 422.738898 117.354694 286.462253 124.735675 541.116589 17.151955 592.358455a93.375757 93.375757 0 0 1-40.339895 8.896977zM344.916436 42.668889a50.132869 50.132869 0 0 0-21.972943 4.756987C250.922681 81.729787 248.938686 310.999189 361.215393 585.129474 462.868128 833.127828 602.664764 981.329441 679.079564 981.329441c8.063979 0 15.25296-1.556996 21.994943-4.778987 72.019812-34.281911 74.004807-263.549313-38.3149-537.660598C561.129872 190.870502 421.332236 42.669889 344.916436 42.669889z" fill="#3d8f00" /><path d="M238.335714 938.982552c-34.47391 0-62.121838-10.537973-82.153786-31.359919-82.986784-86.227775 7.423981-327.528146 205.801463-549.308567C510.419004 192.299499 676.75457 85.037778 785.745286 85.037778c34.49591 0 62.143838 10.559972 82.196786 31.379918 82.986784 86.229775-7.423981 327.465146-205.779464 549.245568-148.457613 166.014567-314.814179 273.320287-423.826894 273.320288z m547.409572-811.279885c-95.91375 0-253.416339 104.105729-391.975978 259.049325-192.915497 215.699438-263.869312 432.038873-206.84646 491.281719 11.66997 12.117968 28.969924 18.261952 51.412866 18.261952 95.91375 0 253.459339-104.127728 392.018977-259.113324 192.916497-215.636438 263.849312-431.932874 206.825461-491.17572-11.68997-12.137968-28.991924-18.303952-51.434866-18.303952z" fill="#3d8f00" /><path d="M436.798196 511.998665a81.129788 75.241804 90 1 0 150.484608 0 81.129788 75.241804 90 1 0-150.484608 0z" fill="#3d8f00" /></svg>