<?xml version="1.0" standalone="no"?><!DOCTYPE svg PUBLIC "-//W3C//DTD SVG 1.1//EN" "http://www.w3.org/Graphics/SVG/1.1/DTD/svg11.dtd"><svg class="icon" width="32px" height="32.00px" viewBox="0 0 1024 1024" version="1.1" xmlns="http://www.w3.org/2000/svg"><path fill="#3d8f00" d="M139.294118 259.764706h527.058823a7.529412 7.529412 0 0 0 0-15.058824h-527.058823a7.529412 7.529412 0 0 0 0 15.058824zM139.294118 455.529412h421.647058a7.529412 7.529412 0 0 0 0-15.058824h-421.647058a7.529412 7.529412 0 0 0 0 15.058824zM410.352941 591.058824h-271.058823a7.529412 7.529412 0 0 0 0 15.058823h271.058823a7.529412 7.529412 0 0 0 0-15.058823zM380.235294 756.705882h-240.941176a7.529412 7.529412 0 0 0 0 15.058824h240.941176a7.529412 7.529412 0 0 0 0-15.058824zM786.823529 427.821176V100.517647c0-47.344941-30.704941-81.694118-73.020235-81.694118H74.164706C32.707765 18.823529 3.764706 52.404706 3.764706 100.517647V950.362353c0 44.016941 25.660235 69.255529 70.4 69.255529l669.364706-3.328s0.105412-3.584 0.165647-3.584h0.783059c161.325176 0 278.934588-137.788235 278.934588-299.369411 0-140.754824-100.577882-256.301176-236.589177-285.515295z m20.992 203.91153a932.005647 932.005647 0 0 0-167.725176 0c12.724706-115.410824 49.272471-188.190118 83.862588-188.190118s71.137882 72.794353 83.862588 188.190118z m-182.964705 1.536c-77.071059 8.417882-145.031529 26.759529-175.600942 54.166588 14.968471-125.349647 113.92-225.054118 238.878118-241.302588-30.403765 30.689882-53.850353 99.403294-63.277176 187.136z m-1.370353 15.36a830.418824 830.418824 0 0 0-3.162353 71.785412c0 24.907294 1.174588 48.835765 3.162353 71.770353-107.384471-12.363294-176.384-43.294118-176.384-71.770353 0-28.491294 68.999529-59.422118 176.384-71.785412z m1.370353 155.346823c8.914824 83.019294 30.328471 148.495059 58.383058 178.612706h-22.467764c-111.826824-15.058824-197.647059-118.497882-211.501177-234.541176 30.554353 27.407059 98.514824 47.510588 175.585883 55.92847z m120.95247 183.657412c-3.779765 0.316235-7.499294-2.710588-11.324235-2.56-2.032941 0.075294-3.960471-2.484706-5.692235-2.484706H704.752941c-28.069647-15.058824-54.287059-83.004235-64.662588-177.076706 27.482353 2.499765 55.838118 5.571765 83.862588 5.571765s56.380235-0.406588 83.862588-2.906353c-10.044235 91.120941-34.951529 156.340706-62.012235 179.456z m-21.850353-189.831529c-30.268235 0-58.819765-1.415529-85.278117-3.930353a822.452706 822.452706 0 0 1 0-146.928941c26.458353-2.514824 54.994824-3.945412 85.278117-3.945412s58.819765 1.415529 85.278118 3.930353a822.799059 822.799059 0 0 1 0 146.928941 898.228706 898.228706 0 0 1-85.278118 3.945412z m100.472471-149.172706c85.850353 9.878588 146.913882 31.608471 168.026353 54.512941 0.361412 5.601882 0.783059 11.188706 0.783059 16.865882 0 5.993412-0.481882 11.866353-0.873412 17.769412-21.187765 22.859294-82.206118 44.528941-167.936 54.40753 1.987765-22.934588 3.162353-46.863059 3.162353-71.770353s-1.174588-48.850824-3.162353-71.785412z m165.586823 31.894588c-33.641412-23.612235-96.542118-39.559529-166.957176-47.254588-8.628706-80.338824-29.018353-144.745412-55.732706-178.627765 1.430588 0.451765 2.861176 0.903529 4.442353 0.90353 0.301176 0 0.557176-0.150588 0.858353-0.165647 113.197176 20.946824 200.493176 113.106824 217.389176 225.14447zM33.882353 950.362353V100.517647c0-23.792941 10.541176-51.576471 40.282353-51.576471h639.653647c29.470118 0 42.902588 26.729412 42.902588 51.576471v328.192c-0.542118 0.527059-1.084235 1.039059-1.551059 1.641412a296.493176 296.493176 0 0 0-31.201882-1.852235c-160.948706 0-291.915294 130.951529-291.915294 291.930352 0 121.072941 74.104471 225.114353 179.335529 269.281883l-537.223529-0.210824c-28.235294 0-40.282353-11.700706-40.282353-39.137882z m734.358588 34.590118c26.262588-34.198588 46.290824-98.002824 54.814118-177.408 70.369882-7.68 133.210353-23.627294 166.881882-47.194353-17.167059 115.064471-106.375529 205.568-221.696 224.602353zM735.683765 723.712m-29.620706 0a29.620706 29.620706 0 1 0 59.241412 0 29.620706 29.620706 0 1 0-59.241412 0Z" /></svg>