<?xml version="1.0" standalone="no"?><!DOCTYPE svg PUBLIC "-//W3C//DTD SVG 1.1//EN" "http://www.w3.org/Graphics/SVG/1.1/DTD/svg11.dtd"><svg class="icon" width="32px" height="32.00px" viewBox="0 0 1024 1024" version="1.1" xmlns="http://www.w3.org/2000/svg"><path fill="#3d8f00" d="M519.637333 470.016c83.626667 6.4 152.746667 57.088 152.746667 127.317333 0 75.221333-79.189333 128-170.666667 128-65.152 0-125.013333-26.794667-153.6-71.338666a42.666667 42.666667 0 1 1 71.765334-46.165334c11.392 17.749333 43.605333 32.170667 81.834666 32.170667 49.92 0 85.333333-23.594667 85.333334-42.666667 0-19.072-35.413333-42.666667-85.333334-42.666666a41.813333 41.813333 0 0 1-7.68-0.682667C410.453333 547.584 341.333333 496.896 341.333333 426.666667c0-75.221333 79.189333-128 170.666667-128 65.152 0 124.970667 26.794667 153.6 71.338666a42.666667 42.666667 0 1 1-71.765333 46.165334C582.4 398.421333 550.229333 384 512 384c-49.92 0-85.333333 23.594667-85.333333 42.666667 0 19.072 35.413333 42.666667 85.333333 42.666666 2.602667 0 5.12 0.213333 7.637333 0.682667z m372.821334 94.165333a234.666667 234.666667 0 0 1-344.661334 314.965334 42.666667 42.666667 0 1 1 56.832-63.658667 149.333333 149.333333 0 0 0 210.858667-210.858667 42.666667 42.666667 0 0 1-10.112-36.394666 298.666667 298.666667 0 0 0-349.610667-349.610667 42.666667 42.666667 0 0 1-36.394666-10.112A149.333333 149.333333 0 0 0 208.512 419.413333a42.666667 42.666667 0 0 1 10.112 36.394667 298.794667 298.794667 0 0 0 233.130667 348.842667 42.666667 42.666667 0 0 1-17.152 83.584 384.128 384.128 0 0 1-303.061334-428.373334 234.666667 234.666667 0 0 1 328.32-328.32 384 384 0 0 1 432.64 432.64z" /></svg>