<?xml version="1.0" standalone="no"?><!DOCTYPE svg PUBLIC "-//W3C//DTD SVG 1.1//EN" "http://www.w3.org/Graphics/SVG/1.1/DTD/svg11.dtd"><svg t="1602894078323" class="icon" viewBox="0 0 1024 1024" version="1.1" xmlns="http://www.w3.org/2000/svg" p-id="2529" xmlns:xlink="http://www.w3.org/1999/xlink" width="32" height="32"><defs><style type="text/css"></style></defs><path d="M846.6 718.5c16.3-19.6 26.1-45 26.1-72.4 0-63.3-50.9-114.2-114.2-114.2-63.3 0-114.2 50.9-114.2 114.2 0 63.3 50.9 114.2 114.2 114.2 25.5 0 48.3-8.5 67.2-22.2l71.8 71.8c2.6 2.6 6.5 3.9 9.8 3.9 3.3 0 7.2-1.3 10.4-3.9 5.9-5.9 5.9-14.4 0-20.2l-71.1-71.2z m-174.2-73.8c0-47 39.2-86.1 86.1-86.1 47.6 0 86.2 39.2 86.2 86.1 0 47-39.2 86.1-86.2 86.1-47 0.1-86.1-39.1-86.1-86.1z m0 0" fill="#3d8f00" p-id="2530"></path><path d="M904.7 298.3c-12.2-31.5-30.6-60.2-54.2-84.5-44.8-46.7-106.6-73.1-171.3-73.2-61.6 0.9-120.6 25-165.2 67.4-46.1-44.8-108.5-69.1-172.8-67.3-64.3 1.8-125.1 29.6-168.6 77-46.7 49.7-72.5 115.4-72.2 183.5v15.6c0.6 27.8 5.9 55.3 15.8 81.3v3l1.4 3.5c30.5 73.8 97.2 157.2 198.3 247.9C361 793 408.3 831 457.7 866.1c15.4 11.4 34.2 17.5 53.4 17.4 19.3 0.2 38.1-5.9 53.6-17.4 5.3-3.7 58.5-41.2 123.2-97.5 0.7-0.6 1.4-1.2 2.1-1.9-14.9-8.5-28.1-19.7-38.8-33-50.5 43.3-91 71.9-95.2 74.8-13 9.6-28.7 14.7-44.9 14.6-16.1 0.1-31.8-5-44.7-14.6-41.3-29.5-81-61.2-118.7-95.2-84.7-76-140.5-145.8-166-207.6l-1.1-2.9v-2.5c-8.3-21.8-12.8-44.8-13.3-68v-13.1c-0.3-57.1 21.3-112.1 60.4-153.7 36.4-39.7 87.4-63 141.2-64.5 53.9-1.5 106 18.8 144.7 56.3C551 221.9 600.4 201.8 652 201c54.2 0.1 105.9 22.2 143.4 61.3 19.7 20.3 35.1 44.4 45.4 70.8 10.7 27.6 15.6 57 14.4 86.6v12.8c0.2 21.1-3.8 42-11.8 61.5-2.7 8.7-6.1 17-10.3 25.1-0.3 3.3-1.5 6.5-3.6 9.2l-1.8 3.6c16.3 9.9 30.4 23.2 41.3 38.8 4.8-7.4 9.4-14.8 13.6-22l8.6-17.2c2.5-3.2 3.9-7 4.3-11 5-9.6 9.1-19.6 12.3-29.9 9.6-23.3 14.3-48.3 14.1-73.5v-15.2c1.5-35.5-4.4-70.7-17.2-103.6z" fill="#3d8f00" p-id="2531"></path><path d="M807.4 351.2c-9.2-23.7-23.1-45.3-40.8-63.6-33.7-35.1-80.2-55-128.9-55.1-46.3 0.7-90.7 18.8-124.3 50.7-34.7-33.7-81.6-52-130-50.6-48.4 1.4-94.2 22.3-126.9 58-35.1 37.4-54.6 86.8-54.3 138.1v11.8c0.4 20.9 4.5 41.6 11.9 61.2v2.3l1 2.6c23 55.5 73.1 118.3 149.2 186.6 33.9 30.5 69.5 59 106.7 85.5 11.6 8.6 25.7 13.2 40.2 13.1 14.5 0.1 28.7-4.5 40.3-13.1 3.8-2.6 40.6-28.6 86.3-67.9-9.6-18.7-15.1-39.9-15.1-62.4 0-75.2 61-136.2 136.2-136.2 14.5 0 28.4 2.3 41.5 6.5v-0.3c3.8-7.2 6.9-14.7 9.3-22.5 7.2-17.5 10.8-36.3 10.6-55.3V429c1.1-26.5-3.3-53-12.9-77.8z m-382.6 63.4h-42.5v42.5c0 9.3-7.6 17-17 17-9.3 0-17-7.6-17-17v-42.5h-42.5c-9.3 0-17-7.6-17-17 0-9.3 7.6-17 17-17h42.5v-42.5c0-9.3 7.6-17 17-17 9.3 0 17 7.6 17 17v42.5h42.5c9.3 0 17 7.6 17 17s-7.6 17-17 17z" fill="#3d8f00" p-id="2532"></path><path d="M703.6 284.3c1.5-3.7 5.6-5.7 9.6-5.1 13.6 2 21.4 1.8 30.5 11.9 10.1 11.1 13.6 17.1 13.6 29.1s-10.8 11.1-13.6 4.3c-2.7-6.9-6.1-25-24.1-28.3-15.8-2.8-17.6-7.9-16-11.9z" fill="#3d8f00" p-id="2533"></path></svg>