<?xml version="1.0" standalone="no"?><!DOCTYPE svg PUBLIC "-//W3C//DTD SVG 1.1//EN" "http://www.w3.org/Graphics/SVG/1.1/DTD/svg11.dtd"><svg class="icon" width="32px" height="32.00px" viewBox="0 0 1024 1024" version="1.1" xmlns="http://www.w3.org/2000/svg"><path fill="#3d8f00" d="M922.582451 626.414551h-27.631422V262.703178c0-45.335998-36.227863-82.075555-82.177893-82.075555H212.454927c-22.105137 0-43.289226 8.391765-58.742355 23.742555-15.555467 15.453128-24.561263 36.125525-24.561263 58.333v363.711373h-25.379972c-19.341995 0-36.227863 15.146112-36.227863 34.488107V760.375775c0 45.745353 38.069958 83.098941 83.508295 83.09894h723.022187c46.052369 0 82.38257-37.455926 82.38257-83.09894v-99.473117c0.102339-19.341995-14.532081-34.488107-33.874075-34.488107zM199.150909 262.703178c0-6.959025 6.140316-11.461923 13.304018-11.461923h600.318209c7.368379 0 12.178293 4.912253 12.178293 11.461923v363.711373H199.150909V262.703178zM886.456926 760.375775c0 6.856686-5.219268 13.09934-12.38297 13.09934H151.051769c-6.856686 0-13.508695-5.935639-13.508695-13.09934v-63.859285h748.913852V760.375775z"  /></svg>