<svg t="1589528610707" class="icon" viewBox="0 0 1024 1024" version="1.1" xmlns="http://www.w3.org/2000/svg" p-id="1277" width="200" height="200"><path d="M731.428571 438.857143h73.142858v146.285714h-73.142858V438.857143zM219.428571 438.857143h73.142858v146.285714H219.428571V438.857143z m585.142858-146.285714H219.428571V98.889143C219.428571 44.324571 261.412571 0 313.051429 0h397.897142C762.514286 0 804.571429 44.324571 804.571429 98.889143V292.571429zM292.571429 219.428571h438.857142V97.060571C731.428571 83.894857 721.700571 73.142857 709.705143 73.142857H314.294857C302.299429 73.142857 292.571429 83.821714 292.571429 97.060571V219.428571z" fill="#3d8f00" p-id="1278"></path><path d="M945.810286 1024H78.189714C35.035429 1024 0 983.917714 0 934.473143V308.955429C0 259.510857 35.035429 219.428571 78.189714 219.428571h867.620572C988.964571 219.428571 1024 259.510857 1024 308.955429v625.517714c0 49.444571-35.035429 89.526857-78.189714 89.526857zM90.770286 292.571429C81.115429 292.571429 73.142857 301.787429 73.142857 313.124571v617.179429c0 11.337143 7.899429 20.553143 17.700572 20.553143h842.313142c9.801143 0 17.700571-9.216 17.700572-20.553143V313.051429c0-11.337143-7.899429-20.553143-17.700572-20.553143H90.843429z" fill="#3d8f00" p-id="1279"></path><path d="M73.142857 438.857143h950.857143v73.142857H73.142857z" fill="#3d8f00" p-id="1280"></path></svg>