<?xml version="1.0" standalone="no"?><!DOCTYPE svg PUBLIC "-//W3C//DTD SVG 1.1//EN" "http://www.w3.org/Graphics/SVG/1.1/DTD/svg11.dtd"><svg class="icon" width="32px" height="32.00px" viewBox="0 0 1024 1024" version="1.1" xmlns="http://www.w3.org/2000/svg"><path fill="#3d8f00" d="M854.9 528.5v269.2h-57.2v57.2c0 15.8-5.5 29.2-16.7 40.4S756.4 912 740.6 912c-15.8 0-29.2-5.5-40.4-16.7s-16.7-24.6-16.7-40.4v-57.2H340.6v57.2c0 15.8-5.5 29.2-16.7 40.4S299.3 912 283.5 912s-29.2-5.5-40.4-16.7-16.7-24.6-16.7-40.4v-57.2h-57.2V528.5c0-33.3 3.8-66.5 11.2-99.5l46-202.7c2.8-23.2 17.2-43.6 43.6-61.2s60.6-30.8 102.7-39.7S461.2 112 512.1 112c50.9 0 97.3 4.5 139.5 13.4s76.3 22.1 102.7 39.7 40.8 37.9 43.6 61.2L844.8 429c6.5 30.3 10.1 63.5 10.1 99.5zM323.8 695.3c11.2-11.2 16.7-24.6 16.7-40.4 0-15.8-5.5-29.2-16.7-40.4s-24.6-16.7-40.4-16.7-29.2 5.5-40.4 16.7-16.7 24.6-16.7 40.4c0 15.8 5.5 29.2 16.7 40.4 11.2 11.3 24.6 16.7 40.4 16.7 15.8 0.1 29.2-5.5 40.4-16.7z m453.3-217.2L745 306.7c-1.5-6.8-4.8-12.4-10.1-16.7-5.1-4.3-11.3-6.5-18.1-6.5H307.1c-6.8 0-12.8 2.2-18.1 6.5-5.1 4.3-8.5 9.9-10.1 16.7l-32.1 171.4c-1.5 8.9 0.6 16.8 6.3 23.6 5.6 6.8 12.9 10.3 21.8 10.3h474c8.9 0 16.2-3.4 21.8-10.3 5.8-6.8 7.9-14.7 6.4-23.6zM670 220.1c4.2-4.2 6.3-9.2 6.3-15.2 0-5.9-2.1-11-6.3-15.2-4.2-4.2-9.2-6.3-15.2-6.3H369c-5.9 0-11 2.1-15.2 6.3-4.2 4.2-6.3 9.2-6.3 15.2 0 5.9 2.1 11 6.3 15.2 4.2 4.2 9.2 6.3 15.2 6.3h285.7c6.1-0.1 11.2-2.1 15.3-6.3z m111 475.2c11.2-11.2 16.7-24.6 16.7-40.4 0-15.8-5.5-29.2-16.7-40.4s-24.6-16.7-40.4-16.7c-15.8 0-29.2 5.5-40.4 16.7s-16.7 24.6-16.7 40.4c0 15.8 5.5 29.2 16.7 40.4 11.2 11.3 24.6 16.7 40.4 16.7 15.7 0.1 29.2-5.5 40.4-16.7z" /></svg>