<svg t="1596853252384" class="icon" viewBox="0 0 1026 1024" version="1.1" xmlns="http://www.w3.org/2000/svg" p-id="7148" width="32" height="32"><path d="M350.461214 397.711591l0.68265-0.221861h-64.288516a19.796835 19.796835 0 0 0-19.626173 19.540841v63.72533c0 10.512802 8.959775 18.090211 19.626173 18.090211h64.288516c10.666398 0 17.817152-7.457946 17.817151-18.090211v-63.72533c0.102397-10.6152-7.833403-19.438444-18.499801-19.31898z m0-203.514878l0.68265 0.802113h-64.288516c-10.546935 0-19.626173 6.89476-19.626173 17.407562v64.288515c0 10.495736 8.959775 19.540842 19.626173 19.540842h64.288516c10.546935 0 17.817152-9.045106 17.817151-19.540842v-64.305581c0.102397-10.495736-7.952867-18.295006-18.499801-18.192609z m-1.245835 408.036664h-0.563186v-2.389273h-61.694447c-10.546935 0-19.626173 10.751729-19.626173 21.264531v64.288516c0 10.512802 8.976841 20.786677 19.626173 20.786677h64.305581c10.546935 0 17.800085-10.273875 17.800086-20.786677v-64.169052c0-10.632266-9.301099-18.994722-19.848034-18.994722z m232.698144-204.743647s-0.102397 0 0 0h-63.827727c-10.666398 0-16.895575 8.925642-16.895575 19.540841v63.72533c0 10.632266 6.229177 18.090211 16.895575 18.090211h63.725329c10.649332 0 20.854942-7.338482 20.854942-17.970747v-63.827727c0.119464-10.632266-10.086146-19.557908-20.752544-19.557908z m0.682649-203.293017l-0.785047 0.802113h-63.742396c-10.546935 0-16.895575 6.89476-16.895574 17.407562v64.288515c0 10.495736 6.246243 19.540842 16.895574 19.540842h63.742396c10.546935 0 20.854942-9.045106 20.854942-19.540842v-64.305581c0.119464-10.6152-9.52296-18.295006-20.069895-18.192609z" fill="#3d8f00" p-id="7149"></path><path d="M994.814065 954.787705v-0.68265h-56.369782V641.536921c0-33.330361-26.640396-61.86511-60.039022-61.865109h-93.540046l1.706624-493.316652c0-48.553445-40.020326-86.35516-89.427083-86.35516H178.194616C128.907323 0 88.886997 38.364901 88.886997 87.03781l-1.706624 868.330147-51.813096 0.563185a34.047143 34.047143 0 1 0 0 68.043088l957.859628-0.802113c17.834218 0 33.159699-15.581475 33.159698-33.552222 0.119464-17.86835-16.349455-34.815124-31.572538-34.815124z m-292.054517-14.19911c0 7.440879-7.679807 13.635923-15.10362 13.635924H598.02405c-7.440879 0-13.141003-6.195044-13.141002-13.635924v-114.992306c0-7.440879 5.700123-14.898825 13.141002-14.898825h89.648944c7.440879 0 13.37993 5.154004 13.482328 15.359614h1.621292v114.531517z m0-188.291794c0 7.440879-7.679807 12.117028-15.10362 12.117028H598.02405c-7.440879 0-13.141003-4.676149-13.141002-12.117028v-90.041468c0-7.338482 5.700123-15.922799 13.141002-15.922799h89.648944c7.440879 0 13.37993 10.325073 13.482328 15.359613h1.621292v90.604654z m19.097119-172.624989h-135.284062c-33.398626 0-63.008548 28.534749-63.008547 61.865109v312.687598H154.301884L155.889044 122.194258A55.823662 55.823662 0 0 1 211.473779 66.558325h455.719731a55.652999 55.652999 0 0 1 55.567668 55.550602l-0.904511 457.579951z m160.217835 360.916783c0 7.440879-6.655832 13.635923-13.960182 13.635924h-90.34866a13.635923 13.635923 0 0 1-13.482327-13.635924V825.493892c0-7.440879 6.177978-14.881759 13.482327-14.881759h90.34866c7.440879 0 13.960182 7.560343 13.960182 14.881759v115.111769z m0-188.291794c0 7.440879-6.655832 12.117028-13.960182 12.117028h-90.34866c-7.423813 0-13.482327-4.676149-13.482327-12.117028v-90.62172c0-7.423813 6.177978-15.223084 13.482327-15.223083h90.34866l13.960182 15.240149v90.604654z" fill="#3d8f00" p-id="7150"></path></svg>