<?xml version="1.0" standalone="no"?><!DOCTYPE svg PUBLIC "-//W3C//DTD SVG 1.1//EN" "http://www.w3.org/Graphics/SVG/1.1/DTD/svg11.dtd"><svg t="1611074935978" class="icon" viewBox="0 0 1024 1024" version="1.1" xmlns="http://www.w3.org/2000/svg" p-id="1260" xmlns:xlink="http://www.w3.org/1999/xlink" width="200" height="200"><defs><style type="text/css"></style></defs><path d="M649 561H545V457c0-17.6-14.4-32-32-32s-32 14.4-32 32v104H377c-17.6 0-32 14.4-32 32s14.4 32 32 32h104v104c0 17.6 14.4 32 32 32s32-14.4 32-32V625h104c17.6 0 32-14.4 32-32s-14.4-32-32-32z" fill="#3d8f00" p-id="1261"></path><path d="M817 273H681V145c0-17.6-14.4-32-32-32H377c-17.6 0-32 14.4-32 32v128H209c-52.8 0-96 43.2-96 96v448c0 52.8 43.2 96 96 96h608c52.8 0 96-43.2 96-96V369c0-52.8-43.2-96-96-96z m-408-96h208v96H409v-96z m440 640c0 17.3-14.7 32-32 32H209c-17.3 0-32-14.7-32-32V369c0-17.3 14.7-32 32-32h608c17.3 0 32 14.7 32 32v448z" fill="#3d8f00" p-id="1262"></path></svg>