<svg xmlns="http://www.w3.org/2000/svg" width="45.521" height="31.371" viewBox="0 0 45.521 31.371">
  <g id="组_5" data-name="组 5" transform="translate(0.15 0.15)">
    <path id="路径_9" data-name="路径 9" d="M648.793,386.38a1.053,1.053,0,0,1-1.05-1.049,7.938,7.938,0,0,1,4.468-7.158,5.418,5.418,0,0,1,1.991-9.34,1.033,1.033,0,0,1,.292-.042,1.051,1.051,0,0,1,.293,2.06,3.318,3.318,0,0,0,.765,6.5,1.05,1.05,0,0,1,1,1.1,1.032,1.032,0,0,1-.506.833.981.981,0,0,1-.545.187,5.844,5.844,0,0,0-5.657,5.858,1.053,1.053,0,0,1-1.05,1.049Zm0,0" transform="translate(-628.089 -357.6)" fill="#3d8f00" stroke="#3d8f00" stroke-width="0.3"/>
    <path id="路径_10" data-name="路径 10" d="M817.43,309.977a1.052,1.052,0,0,1-1.052-1.05,9.9,9.9,0,0,1,1.825-5.745,10.008,10.008,0,0,1,4.239-3.432,6.691,6.691,0,1,1,3.929,1.278,7.9,7.9,0,0,0-7.891,7.9A1.053,1.053,0,0,1,817.43,309.977Zm8.938-20.243a4.6,4.6,0,1,0,4.6,4.6,4.6,4.6,0,0,0-4.6-4.6Zm0,0" transform="translate(-791.607 -278.906)" fill="#3d8f00" stroke="#3d8f00" stroke-width="0.3"/>
    <path id="路径_11" data-name="路径 11" d="M18.411,27.731c0-.117,0-.233.007-.348H10a8.277,8.277,0,0,1-8.082-8.442C1.919,14.086,5.7,9.828,10,9.828h1.076a10.551,10.551,0,0,1,10.49-7.388,11.161,11.161,0,0,1,9.989,5.724,7.861,7.861,0,0,1,1.979-.583A13.912,13.912,0,0,0,30.168,3.21,13.207,13.207,0,0,0,26.238.855,13.04,13.04,0,0,0,9.83,7.417L9.744,7.6l-.194.026A10.939,10.939,0,0,0,2.717,11.3a11.4,11.4,0,0,0,.4,15.219A10.3,10.3,0,0,0,10.6,29.769h9.06A2.3,2.3,0,0,1,18.411,27.731Zm25.76,3.34a1.053,1.053,0,0,1-1.05-1.05,7.923,7.923,0,0,0-2.557-5.82,1.05,1.05,0,0,1,1.419-1.546,10.032,10.032,0,0,1,3.238,7.367,1.053,1.053,0,0,1-1.05,1.049Zm0,0" transform="translate(0 0)" fill="#3d8f00" stroke="#3d8f00" stroke-width="0.3"/>
  </g>
</svg>
