<?xml version="1.0" standalone="no"?><!DOCTYPE svg PUBLIC "-//W3C//DTD SVG 1.1//EN" "http://www.w3.org/Graphics/SVG/1.1/DTD/svg11.dtd"><svg class="icon" width="32px" height="32.00px" viewBox="0 0 1024 1024" version="1.1" xmlns="http://www.w3.org/2000/svg"><path fill="#3d8f00" d="M244.5 368.8c13.9-90.7 42.6-179.4 85.6-262.2-20 9-39.6 19.6-58.6 31.8-65.2 42-115.7 98.1-150.1 161.8 38.7 28 80 50.9 123.1 68.6zM317.8 701c126.4 43.8 266.2 44.5 396.3-2.3C729 608 727.7 515.8 710.2 426c-77 30.2-157.8 45.3-238.5 45.3-60 0-119.8-8.4-177.8-24.7-5.6 85.3 2.3 171.4 23.9 254.4zM750 344.7c45.6-24.1 87.7-53.7 125.4-88.2-63.2-90-154.3-149.7-253.9-175C680.4 162.9 723.4 252 750 344.7zM773.3 397.6c-3 1.6-6.1 2.9-9.1 4.4 18.7 88.8 22.8 180.1 11.9 270.4 9.7-4.8 19.2-9.7 28.7-15 56.8-31.9 107.3-72.2 150.6-119.9 4.5-78-11.4-157.8-49.6-230.9-40.1 35.5-84.5 66.1-132.5 91zM299.9 388.4c129.1 38.7 269.4 33.1 397.1-19-27.2-99.5-74.5-194.8-141.7-280-5.5-7-11.2-14-17-20.9-41.8-2.5-84.1 0.8-125.6 10.3-59.8 95.3-97.6 201-112.8 309.6zM700.4 764c-61.6 18.5-124.8 27.6-187.7 27.6-59 0-117.6-8-174.3-23.7 21.4 60 50.2 117.9 86.5 171.9 2 3 4.1 5.9 6.1 8.8 66 12.3 134.9 9.7 201.1-8.9 30.3-56.5 52.9-115.5 68.3-175.7zM252.4 674c-16.7-80.9-21.7-163.9-14.8-246-49.2-18.8-96.4-43.7-140.6-74.5-21.9 57.5-31.7 119.2-28.6 181C121.3 594 184 640.8 252.4 674zM833.1 707.7c-22.3 12.5-45.1 23.5-68.2 33.2-11.8 57.1-29.8 113.5-53.9 168.2 14-7.1 27.9-14.9 41.4-23.6 94.6-60.9 158.3-151.7 186.8-252.1-32.7 28.1-68.1 53-106.1 74.3zM270.2 745C203 718.1 139.9 679.6 83.7 630.5c11.7 42.1 29.8 83.2 54.7 121.9 52.1 80.9 126.1 139.2 209.2 172.2-33-57.1-58.8-117.5-77.4-179.6z" /></svg>