<?xml version="1.0" standalone="no"?><!DOCTYPE svg PUBLIC "-//W3C//DTD SVG 1.1//EN" "http://www.w3.org/Graphics/SVG/1.1/DTD/svg11.dtd"><svg class="icon" width="32px" height="32.00px" viewBox="0 0 1024 1024" version="1.1" xmlns="http://www.w3.org/2000/svg"><path fill="#3d8f00" d="M832 229.333333h-32v-17.493333c0-66.773333-54.4-121.173333-121.173333-121.173333H345.173333c-66.773333 0-121.173333 54.4-121.173333 121.173333v17.493333H192a117.546667 117.546667 0 0 0-117.333333 117.333334v469.333333c0 64.64 52.693333 117.333333 117.333333 117.333333h640c64.64 0 117.333333-52.693333 117.333333-117.333333v-469.333333c0-64.64-52.693333-117.333333-117.333333-117.333334z m-544-17.493333c0-31.573333 25.6-57.173333 57.173333-57.173333h333.653334c31.573333 0 57.173333 25.6 57.173333 57.173333v17.493333h-448v-17.493333z m597.333333 604.16a53.333333 53.333333 0 0 1-53.333333 53.333333H192a53.333333 53.333333 0 0 1-53.333333-53.333333v-352h746.666666v352z m0-416h-746.666666v-53.333333a53.333333 53.333333 0 0 1 53.333333-53.333334h640a53.333333 53.333333 0 0 1 53.333333 53.333334v53.333333zM618.666667 621.333333h-74.666667v-74.666666a32 32 0 1 0-64 0v74.666666H405.333333a32 32 0 0 0 0 64h74.666667v74.666667a32 32 0 0 0 64 0v-74.666667H618.666667a32 32 0 0 0 0-64z" /></svg>