<svg t="1587178873196" class="icon" viewBox="0 0 1024 1024" version="1.1" xmlns="http://www.w3.org/2000/svg" p-id="3581" width="128" height="128"><path d="M154.583934 1024c-1.028503-78.851863-28.660938-147.4187-64.498538-217.128317-24.569783-49.139567-15.358971-115.717965-21.495703-178.182354h880.398187C954.107537 718.809008 963.36406 806.917394 894.728657 883.712251c-13.301966 15.358971-12.273464 43.002835-16.376047 65.538469-4.091155 24.569783-5.119657 50.168069-8.193737 74.74928H808.745843c-3.07408-26.626788-7.165234-52.225074-10.285026-74.74928H223.173627c-3.07408 24.569783-6.14816 49.139567-9.22224 74.74928zM246.714907 0c61.424458 44.031337 133.088231 44.031337 203.723501 53.242149 12.284892 2.057005 23.541281 14.341897 32.76352 19.42727-65.527041 64.509966-126.951499 124.928777-194.512688 192.512823C268.210611 211.962949 243.640828 157.703725 267.193536 96.256411c-59.424592-34.820525-116.712184-14.341897-118.757762 47.105417-4.091155 120.826195-1.017075 241.663817-1.017074 369.655247h826.138964c30.717943 0 57.333304 3.07408 49.139566 43.014262-2.045577 12.284892-17.404549 22.524206-29.712296 29.712296-7.165234 4.091155-20.478629 1.017075-30.706515 1.017075H56.304801c-18.433051 0-37.87175-2.045577-56.304801-3.07408V522.250742c22.524206-5.119657 45.036984-9.22224 72.680847-15.358971 0-103.421646 4.102582-208.900297-1.017074-314.36752C67.56119 96.256411 102.370288 31.746446 194.512689 0z" p-id="3582" fill="#3d8f00"></path></svg>