<svg t="1596166071841" class="icon" viewBox="0 0 1024 1024" version="1.1" xmlns="http://www.w3.org/2000/svg" p-id="1987"><path d="M862.4 1.6H161.6c-70.4 0-128 57.6-128 128V896c0 70.4 57.6 128 128 128H864c70.4 0 128-57.6 128-128V129.6c-1.6-70.4-57.6-128-129.6-128z m64 860.8c0 52.8-43.2 96-96 96H192c-52.8 0-96-43.2-96-96V161.6c0-52.8 43.2-96 96-96h638.4c52.8 0 96 43.2 96 96v700.8z" fill="#00A9F4" p-id="1988"></path><path d="M544 480H320V288h-64v448h64V544h224v192h64V288h-64v192zM704 416h64v320h-64V416zM704 288h64v96h-64v-96z" fill="#00A9F4" p-id="1989"></path></svg>