<?xml version="1.0" standalone="no"?><!DOCTYPE svg PUBLIC "-//W3C//DTD SVG 1.1//EN" "http://www.w3.org/Graphics/SVG/1.1/DTD/svg11.dtd"><svg t="1596166849951" class="icon" viewBox="0 0 1024 1024" version="1.1" xmlns="http://www.w3.org/2000/svg" p-id="1139" width="32" height="32" xmlns:xlink="http://www.w3.org/1999/xlink"><defs><style type="text/css"></style></defs><path d="M862.4 1.6H161.6c-70.4 0-128 57.6-128 128V896c0 70.4 57.6 128 128 128H864c70.4 0 128-57.6 128-128V129.6c-1.6-70.4-57.6-128-129.6-128z m64 860.8c0 52.8-43.2 96-96 96H192c-52.8 0-96-43.2-96-96V161.6c0-52.8 43.2-96 96-96h638.4c52.8 0 96 43.2 96 96v700.8z" fill="#3d8f00" p-id="1140"></path><path d="M544 480H320V288h-64v448h64V544h224v192h64V288h-64v192zM704 416h64v320h-64V416zM704 288h64v96h-64v-96z" fill="#3d8f00" p-id="1141"></path></svg>   