<svg t="1598034170475" class="icon" viewBox="0 0 1024 1024" version="1.1" xmlns="http://www.w3.org/2000/svg" p-id="939" width="128" height="128"><path d="M811.707317 1024h-599.414634C94.907317 1024 0 929.092683 0 811.707317v-599.414634C0 94.907317 94.907317 0 212.292683 0h599.414634C929.092683 0 1024 94.907317 1024 212.292683v599.414634c0 117.385366-94.907317 212.292683-212.292683 212.292683zM212.292683 24.97561C109.892683 24.97561 24.97561 109.892683 24.97561 212.292683v599.414634C24.97561 914.107317 109.892683 999.02439 212.292683 999.02439h599.414634c102.4 0 187.317073-84.917073 187.317073-187.317073v-599.414634C999.02439 109.892683 914.107317 24.97561 811.707317 24.97561h-599.414634z" p-id="940" fill="#3d8f00"></path><path d="M162.341463 949.073171v-157.346342L614.4 237.268293h-399.609756V89.912195h626.887805V224.780488L372.136585 804.214634h487.024391V874.146341l107.395122 74.92683h-177.32683z" p-id="941" fill="#3d8f00"></path></svg>