<?xml version="1.0" standalone="no"?><!DOCTYPE svg PUBLIC "-//W3C//DTD SVG 1.1//EN" "http://www.w3.org/Graphics/SVG/1.1/DTD/svg11.dtd"><svg class="icon" width="32px" height="32.00px" viewBox="0 0 1024 1024" version="1.1" xmlns="http://www.w3.org/2000/svg"><path fill="#8a8a8a" d="M752 321.84l132.7-132.69c63.79 89.55 55.75 214.52-24.57 294.85-60 60-144.9 79.57-221.37 59.2L292.59 889.38a114.66 114.66 0 0 1-162.16 0 114.65 114.65 0 0 1 0-162.15l346.18-346.18c-20.37-76.47-0.78-161.38 59.21-221.36 80.32-80.33 205.3-88.37 294.85-24.6L698 267.79z m98.58 9.53l-45.2 45.2a75.48 75.48 0 0 1-106.75 0l-55.41-55.4a75.48 75.48 0 0 1 0-106.75l45.2-45.2a152.56 152.56 0 0 0-109.79 57c-31.67 39.2-39.46 92.71-26.48 141.41l9.67 36.29-377.34 377.36a38.23 38.23 0 0 0 0 54.05 38.21 38.21 0 0 0 54.05 0L615.89 458l36.29 9.67c48.7 13 102.22 5.2 141.42-26.48a152.61 152.61 0 0 0 57-109.82z"  /><path fill="#8a8a8a" d="M656.23 487.31L893 724.12a116.5 116.5 0 0 1 0 164.73 116.48 116.48 0 0 1-164.73 0L491.5 652z m-37.74 72.08l-54.91 54.91 219.64 219.64A38.83 38.83 0 0 0 838.13 779zM261.578 312.297l54.907-54.907L501.71 442.617l-54.906 54.907z"  /><path fill="#8a8a8a" d="M316.49 312.3l-77.22 15.44a75.48 75.48 0 0 1-84.18-44.28L96.85 147.57l54.91-54.91 135.89 58.24a75.48 75.48 0 0 1 44.28 84.18z m-61.05-90.7l-51.94-22.28 22.28 51.93 24.72-4.93z"  /></svg>